<?xml version="1.0" encoding="utf-8"?>
<!-- Generator: Adobe Illustrator 22.0.0, SVG Export Plug-In . SVG Version: 6.00 Build 0)  -->
<svg version="1.1" id="图层_1" xmlns="http://www.w3.org/2000/svg" xmlns:xlink="http://www.w3.org/1999/xlink" x="0px" y="0px"
	 viewBox="0 0 200 200" style="enable-background:new 0 0 200 200;" xml:space="preserve">
<path d="M196.1,93.7c-10.4-12.3-22-25.5-34.4-39.6c-12.5-14.2-25.4-28.9-37.2-42.8c-15-14.8-30.8-15.1-44.6-0.5
	C68.6,23.5,55.7,37.1,43.2,50.2C30.6,63.4,17.6,77.1,6.1,90c-7.9,9-6.5,16.3-4.9,19.9c2.5,5.6,8.2,8.9,12.3,8.9h17.7l0,60.3
	c0,10.1,7.2,21,18,21h34.3v-59.9h37.5V200h34.6c6.7,0,18-5.4,18-25.7v-55.6h13c5.1,0,9.5-2.7,11.8-7.2
	C201.1,106.2,200.3,99.6,196.1,93.7z"/>
</svg>
