<?xml version="1.0" encoding="utf-8"?>
<!-- Generator: Adobe Illustrator 22.0.0, SVG Export Plug-In . SVG Version: 6.00 Build 0)  -->
<svg version="1.1" id="图层_1" xmlns="http://www.w3.org/2000/svg" xmlns:xlink="http://www.w3.org/1999/xlink" x="0px" y="0px"
	 viewBox="0 0 200 200" style="enable-background:new 0 0 200 200;" xml:space="preserve">
<path d="M189.8,94.8L151.5,58c-3.1-2.9-7.7-2.9-10.7,0c-3.1,2.9-3.1,7.4,0,10.3l25.3,24.3H92.6c-4.6,0-7.7,2.9-7.7,7.4
	s3.1,7.4,7.7,7.4h73.5l-25.2,24.3c-3.1,2.9-3.1,7.4,0,10.3c1.5,1.5,3.1,2.2,5.4,2.2c2.3,0,3.8-0.7,5.4-2.2l38.3-37.6
	c0,0,0-0.7,0.8-0.7C192.8,101.5,192.8,97.1,189.8,94.8L189.8,94.8z"/>
<path d="M175.5,153.6c-4.8,0-8,3.1-8,7.7v15.3c0,4.6-3.2,7.7-8,7.7H24.4c-4.8,0-8-3.1-8-7.7V23.4c0-4.6,3.2-7.7,8-7.7h135.2
	c4.8,0,8,3.1,8,7.7v15.3c0,4.6,3.2,7.7,8,7.7c4.8,0,8-3.1,8-7.7V23.4c0-13-10.3-23-23.9-23H24.4c-13.5,0-23.9,10-23.9,23v153.1
	c0,13,10.3,23,23.9,23h135.2c13.5,0,23.9-10,23.9-23v-15.3C183.5,156.7,180.3,153.6,175.5,153.6z"/>
</svg>
